<svg xmlns="http://www.w3.org/2000/svg" viewBox="0 0 129.27 133.85"><defs><style>.cls-1{fill:#fff68e;}.cls-2{fill:#fef36c;}.cls-3{fill:#ffcd00;}.cls-4{fill:#ffe266;}.cls-5{fill:#895140;}.cls-6{fill:#a05f4b;}.cls-7{fill:#fff7b0;}</style></defs><title>Asset 1</title><g id="Layer_2" data-name="Layer 2"><g id="BACKGROUND"><path class="cls-1" d="M128.1,88.38c1.91-6.43,3.38-19.19-11.46-26.23-20.4-9.68-23.83,20.17-23.83,20.17l1.36.28c15.54-18.08,27.19-.48,31.06,6.86Z"/><path class="cls-2" d="M54.66,51.09A82,82,0,0,0,36.93,63l.68,2.18c21-10,25.44-8.08,21.33-.71-12.24,22-4.54,21-4.54,21L75.07,73.15S88.7,36,54.66,51.09Z"/><path class="cls-3" d="M118,36.9a82.17,82.17,0,0,0-3.33-23.22c-1.46-4.62-5.29-14-12.27-13.67a10,10,0,0,0-10,8.91h0c0,.81,0,1.63,0,2.45a82.29,82.29,0,0,1-65.24,80.5l0,0C20.53,93.58-1,96.17,0,103.95c1,7.48,11.62,11.58,12.42,11.88A82.31,82.31,0,0,0,118,36.9Z"/><path class="cls-4" d="M106.34,25.25a82.13,82.13,0,0,0-4-25.23,10,10,0,0,0-10,8.91h0c0,.81,0,1.63,0,2.45,0,1.34,0,2.66-.1,4,0,.43-.06.86-.09,1.3-.06.89-.12,1.77-.2,2.65,0,.51-.11,1-.17,1.51-.09.8-.19,1.6-.3,2.39-.08.52-.16,1-.24,1.56q-.19,1.16-.41,2.3c-.1.52-.2,1-.31,1.54-.16.77-.34,1.54-.53,2.3-.12.49-.23,1-.36,1.45-.22.83-.46,1.66-.7,2.48-.12.4-.23.8-.35,1.2q-.56,1.79-1.2,3.55c-.1.27-.21.54-.31.81-.34.91-.69,1.81-1.06,2.7-.19.46-.4.91-.6,1.37-.3.69-.61,1.38-.93,2.06-.24.5-.48,1-.73,1.48s-.63,1.25-1,1.87-.54,1-.82,1.5-.67,1.18-1,1.76-.59,1-.89,1.48-.72,1.13-1.09,1.7-.62,1-.95,1.44-.8,1.13-1.2,1.69-.63.9-1,1.34q-1.05,1.4-2.17,2.76c-.38.47-.79.92-1.18,1.38s-.81.95-1.22,1.41-.88,1-1.33,1.42-.79.84-1.2,1.25-.94.94-1.42,1.4l-1.21,1.15q-.75.7-1.51,1.37L63.53,74c-.53.45-1.06.9-1.61,1.34l-1.19.94c-.58.45-1.15.9-1.74,1.33l-1,.72a82.16,82.16,0,0,1-7,4.47l-1,.6c-.68.38-1.37.74-2.07,1.09l-1.2.62c-.69.34-1.39.67-2.09,1l-1.26.57q-1.06.47-2.14.91l-1.26.5c-.74.29-1.48.57-2.23.84l-1.16.39c-.8.27-1.6.54-2.41.79l-.57.16c-2.09.62-4.2,1.16-6.36,1.62h0l0,0C20.54,93.58-1,96.17,0,103.94a82.29,82.29,0,0,0,106.3-78.69Z"/><path class="cls-3" d="M118,36.9a82.17,82.17,0,0,0-3.33-23.22c-1.46-4.62-5.29-14-12.27-13.67a10,10,0,0,0-10,8.91h0c0,.81,0,1.63,0,2.45a82.29,82.29,0,0,1-65.24,80.5l0,0C20.53,93.58-1,96.17,0,103.95c1,7.48,11.62,11.58,12.42,11.88A82.31,82.31,0,0,0,118,36.9Z"/><path class="cls-3" d="M118,36.9a82.17,82.17,0,0,0-3.33-23.22c-1.46-4.62-5.29-14-12.27-13.67a10,10,0,0,0-10,8.91h0c0,.81,0,1.63,0,2.45a82.29,82.29,0,0,1-65.24,80.5l0,0C20.53,93.58-1,96.17,0,103.95c1,7.48,11.62,11.58,12.42,11.88A82.31,82.31,0,0,0,118,36.9Z"/><path class="cls-4" d="M106.34,25.25a82.13,82.13,0,0,0-4-25.23,10,10,0,0,0-10,8.91h0c0,.81,0,1.63,0,2.45,0,1.34,0,2.66-.1,4,0,.43-.06.86-.09,1.3-.06.89-.12,1.77-.2,2.65,0,.51-.11,1-.17,1.51-.09.8-.19,1.6-.3,2.39-.08.52-.16,1-.24,1.56q-.19,1.16-.41,2.3c-.1.52-.2,1-.31,1.54-.16.77-.34,1.54-.53,2.3-.12.49-.23,1-.36,1.45-.22.83-.46,1.66-.7,2.48-.12.4-.23.8-.35,1.2q-.56,1.79-1.2,3.55c-.1.27-.21.54-.31.81-.34.91-.69,1.81-1.06,2.7-.19.46-.4.91-.6,1.37-.3.69-.61,1.38-.93,2.06-.24.5-.48,1-.73,1.48s-.63,1.25-1,1.87-.54,1-.82,1.5-.67,1.18-1,1.76-.59,1-.89,1.48-.72,1.13-1.09,1.7-.62,1-.95,1.44-.8,1.13-1.2,1.69-.63.9-1,1.34q-1.05,1.4-2.17,2.76c-.38.47-.79.92-1.18,1.38s-.81.95-1.22,1.41-.88,1-1.33,1.42-.79.84-1.2,1.25-.94.94-1.42,1.4l-1.21,1.15q-.75.7-1.51,1.37L63.53,74c-.53.45-1.06.9-1.61,1.34l-1.19.94c-.58.45-1.15.9-1.74,1.33l-1,.72a82.16,82.16,0,0,1-7,4.47l-1,.6c-.68.38-1.37.74-2.07,1.09l-1.2.62c-.69.34-1.39.67-2.09,1l-1.26.57q-1.06.47-2.14.91l-1.26.5c-.74.29-1.48.57-2.23.84l-1.16.39c-.8.27-1.6.54-2.41.79l-.57.16c-2.09.62-4.2,1.16-6.36,1.62h0l0,0C20.54,93.58-1,96.17,0,103.94a82.29,82.29,0,0,0,106.3-78.69Z"/><path class="cls-5" d="M16.51,94.14C8.35,96-.63,98.86,0,103.95c1,7.48,11.62,11.58,12.42,11.88.62.18,1.25.35,1.88.52Z"/><path class="cls-6" d="M0,103.93H0A82.17,82.17,0,0,0,15.25,107l1.26-12.9h0l-1.37.32-.37.09-1.08.27-.38.1c-.93.24-1.85.5-2.75.77l-.4.12-1,.31-.42.14-1,.37-.24.09-1.18.48L6,97.36l-.8.37-.38.19L4,98.33l-.28.15q-.47.28-.9.58l-.23.17c-.2.15-.4.3-.58.45l-.26.23c-.17.15-.32.31-.46.46l-.2.21a5.67,5.67,0,0,0-.5.69l-.08.16a4.4,4.4,0,0,0-.28.58c0,.09-.06.18-.09.27a4,4,0,0,0-.12.55c0,.09,0,.18,0,.27A3.9,3.9,0,0,0,0,103.93Z"/><path class="cls-2" d="M66.43,71.41l23.3,3.42,7.8,16.35a82.29,82.29,0,0,0,17.13-77.49c-1.46-4.62-5.29-14-12.27-13.67a10,10,0,0,0-10,8.91h0c0,.81,0,1.63,0,2.45A82,82,0,0,1,66.43,71.41Z"/><path class="cls-1" d="M89.71,74.83A82.32,82.32,0,0,0,102.38,0a10,10,0,0,0-10,8.91h0c0,.81,0,1.63,0,2.45,0,1.34,0,2.66-.1,4,0,.43-.06.86-.09,1.3-.06.89-.12,1.77-.2,2.65,0,.51-.11,1-.17,1.51-.09.8-.19,1.6-.3,2.39-.08.52-.16,1-.24,1.56q-.19,1.16-.41,2.3c-.1.52-.2,1-.31,1.54-.16.77-.34,1.54-.53,2.3-.12.49-.23,1-.36,1.45-.22.83-.46,1.66-.7,2.48-.12.4-.23.8-.35,1.2q-.56,1.79-1.2,3.55c-.1.27-.21.54-.31.81-.34.91-.69,1.81-1.06,2.7-.19.46-.4.91-.6,1.37-.3.69-.61,1.38-.93,2.06-.24.5-.48,1-.73,1.48s-.63,1.25-1,1.87-.54,1-.82,1.5-.67,1.18-1,1.76-.59,1-.89,1.48-.72,1.13-1.09,1.7-.62,1-.95,1.44-.8,1.13-1.2,1.69-.63.9-1,1.34q-1.05,1.4-2.17,2.76c-.38.47-.79.92-1.18,1.38s-.81.95-1.22,1.41-.88,1-1.33,1.42-.79.84-1.2,1.25-.94.94-1.42,1.4l-1,1Z"/><path class="cls-7" d="M74.3,130l3.32,3.81c14.62-6.14,42-21.16,37.29-46.28-6.35-34-48.49-16.12-48.49-16.12C99.12,86.71,83.72,116.47,74.3,130Z"/></g></g></svg>